<mxfile host="65bd71144e">
    <diagram id="gbx13SHVuhcVernPkQtm" name="ページ1">
        <mxGraphModel dx="1259" dy="833" grid="1" gridSize="10" guides="1" tooltips="1" connect="1" arrows="1" fold="1" page="1" pageScale="1" pageWidth="827" pageHeight="1169" math="0" shadow="0">
            <root>
                <mxCell id="0"/>
                <mxCell id="1" parent="0"/>
                <mxCell id="79" value="" style="rounded=0;whiteSpace=wrap;html=1;fontSize=21;fillColor=default;" vertex="1" parent="1">
                    <mxGeometry x="40" y="70" width="960" height="610" as="geometry"/>
                </mxCell>
                <mxCell id="61" style="edgeStyle=orthogonalEdgeStyle;html=1;exitX=0;exitY=0.5;exitDx=0;exitDy=0;fontSize=21;strokeWidth=5;entryX=1;entryY=0.5;entryDx=0;entryDy=0;" edge="1" parent="1" source="52" target="53">
                    <mxGeometry relative="1" as="geometry"/>
                </mxCell>
                <mxCell id="51" value="Metadata&lt;br&gt;Databese" style="shape=cylinder3;whiteSpace=wrap;html=1;boundedLbl=1;backgroundOutline=1;size=15;fontSize=21;fillColor=none;" vertex="1" parent="1">
                    <mxGeometry x="318" y="120" width="160" height="120" as="geometry"/>
                </mxCell>
                <mxCell id="73" style="edgeStyle=orthogonalEdgeStyle;html=1;exitX=0.5;exitY=1;exitDx=0;exitDy=0;entryX=0.5;entryY=0;entryDx=0;entryDy=0;strokeWidth=5;fontSize=21;" edge="1" parent="1" source="52" target="60">
                    <mxGeometry relative="1" as="geometry"/>
                </mxCell>
                <mxCell id="52" value="Scheduler" style="rounded=1;whiteSpace=wrap;html=1;fontSize=21;fillColor=none;" vertex="1" parent="1">
                    <mxGeometry x="318" y="350" width="160" height="80" as="geometry"/>
                </mxCell>
                <mxCell id="53" value="Executor" style="rounded=1;whiteSpace=wrap;html=1;fontSize=21;fillColor=none;verticalAlign=top;" vertex="1" parent="1">
                    <mxGeometry x="80" y="320" width="160" height="140" as="geometry"/>
                </mxCell>
                <mxCell id="72" style="edgeStyle=orthogonalEdgeStyle;html=1;exitX=0;exitY=0.5;exitDx=0;exitDy=0;strokeWidth=5;fontSize=21;" edge="1" parent="1" source="56" target="52">
                    <mxGeometry relative="1" as="geometry"/>
                </mxCell>
                <mxCell id="56" value="Webserver" style="rounded=1;whiteSpace=wrap;html=1;fontSize=21;fillColor=none;" vertex="1" parent="1">
                    <mxGeometry x="550" y="350" width="160" height="80" as="geometry"/>
                </mxCell>
                <mxCell id="63" style="edgeStyle=orthogonalEdgeStyle;html=1;exitX=0.5;exitY=0;exitDx=0;exitDy=0;fontSize=21;strokeWidth=5;entryX=0.5;entryY=1;entryDx=0;entryDy=0;entryPerimeter=0;" edge="1" parent="1" source="53" target="51">
                    <mxGeometry relative="1" as="geometry">
                        <mxPoint x="252" y="370" as="sourcePoint"/>
                        <mxPoint x="210" y="370" as="targetPoint"/>
                    </mxGeometry>
                </mxCell>
                <mxCell id="64" style="edgeStyle=orthogonalEdgeStyle;html=1;exitX=0.5;exitY=0;exitDx=0;exitDy=0;fontSize=21;strokeWidth=5;entryX=0.5;entryY=1;entryDx=0;entryDy=0;entryPerimeter=0;" edge="1" parent="1" source="56" target="51">
                    <mxGeometry relative="1" as="geometry">
                        <mxPoint x="130" y="330" as="sourcePoint"/>
                        <mxPoint x="680" y="270" as="targetPoint"/>
                        <Array as="points">
                            <mxPoint x="630" y="280"/>
                            <mxPoint x="398" y="280"/>
                        </Array>
                    </mxGeometry>
                </mxCell>
                <mxCell id="65" style="edgeStyle=orthogonalEdgeStyle;html=1;exitX=0.5;exitY=0;exitDx=0;exitDy=0;fontSize=21;strokeWidth=5;entryX=0.5;entryY=1;entryDx=0;entryDy=0;entryPerimeter=0;" edge="1" parent="1" source="52" target="51">
                    <mxGeometry relative="1" as="geometry">
                        <mxPoint x="729.9999999999998" y="330" as="sourcePoint"/>
                        <mxPoint x="490.0000000000002" y="250" as="targetPoint"/>
                    </mxGeometry>
                </mxCell>
                <mxCell id="71" value="" style="group" vertex="1" connectable="0" parent="1">
                    <mxGeometry x="90" y="370" width="139" height="70" as="geometry"/>
                </mxCell>
                <mxCell id="55" value="Workers" style="rounded=1;whiteSpace=wrap;html=1;fontSize=21;fillColor=none;" vertex="1" parent="71">
                    <mxGeometry width="130" height="60" as="geometry"/>
                </mxCell>
                <mxCell id="68" value="Worker" style="rounded=1;whiteSpace=wrap;html=1;fontSize=21;fillColor=default;" vertex="1" parent="71">
                    <mxGeometry x="4" y="4" width="130" height="60" as="geometry"/>
                </mxCell>
                <mxCell id="70" value="Workers" style="rounded=1;whiteSpace=wrap;html=1;fontSize=21;fillColor=default;" vertex="1" parent="71">
                    <mxGeometry x="9" y="10" width="130" height="60" as="geometry"/>
                </mxCell>
                <mxCell id="74" style="edgeStyle=orthogonalEdgeStyle;html=1;exitX=0.5;exitY=1;exitDx=0;exitDy=0;fontSize=21;strokeWidth=5;entryX=0.5;entryY=0;entryDx=0;entryDy=0;" edge="1" parent="1" source="53" target="60">
                    <mxGeometry relative="1" as="geometry">
                        <mxPoint x="380" y="400" as="sourcePoint"/>
                        <mxPoint x="250" y="400" as="targetPoint"/>
                    </mxGeometry>
                </mxCell>
                <mxCell id="75" value="" style="group" vertex="1" connectable="0" parent="1">
                    <mxGeometry x="289" y="530" width="200" height="125" as="geometry"/>
                </mxCell>
                <mxCell id="58" value="" style="shape=document;whiteSpace=wrap;html=1;boundedLbl=1;fontSize=21;fillColor=none;" vertex="1" parent="75">
                    <mxGeometry width="180" height="106.06060606060606" as="geometry"/>
                </mxCell>
                <mxCell id="59" value="" style="shape=document;whiteSpace=wrap;html=1;boundedLbl=1;fontSize=21;fillColor=none;" vertex="1" parent="75">
                    <mxGeometry x="10" y="7.575757575757576" width="180" height="106.06060606060606" as="geometry"/>
                </mxCell>
                <mxCell id="60" value="DAG&lt;br&gt;Directory" style="shape=document;whiteSpace=wrap;html=1;boundedLbl=1;fontSize=21;fillColor=default;" vertex="1" parent="75">
                    <mxGeometry x="20" y="18.939393939393938" width="180" height="106.06060606060606" as="geometry"/>
                </mxCell>
                <mxCell id="77" style="edgeStyle=orthogonalEdgeStyle;html=1;exitX=0;exitY=0.5;exitDx=0;exitDy=0;entryX=1;entryY=0.5;entryDx=0;entryDy=0;strokeWidth=5;fontSize=21;" edge="1" parent="1" source="76" target="56">
                    <mxGeometry relative="1" as="geometry"/>
                </mxCell>
                <mxCell id="76" value="User Interface" style="rounded=1;whiteSpace=wrap;html=1;fontSize=21;fillColor=none;" vertex="1" parent="1">
                    <mxGeometry x="800" y="350" width="160" height="80" as="geometry"/>
                </mxCell>
                <mxCell id="80" value="AirflowのComponent" style="text;strokeColor=none;fillColor=none;align=left;verticalAlign=middle;spacingLeft=4;spacingRight=4;overflow=hidden;points=[[0,0.5],[1,0.5]];portConstraint=eastwest;rotatable=0;whiteSpace=wrap;html=1;fontSize=27;" vertex="1" parent="1">
                    <mxGeometry x="50" y="80" width="300" height="50" as="geometry"/>
                </mxCell>
            </root>
        </mxGraphModel>
    </diagram>
</mxfile>
